<?xml version="1.0" standalone="no"?>
<!DOCTYPE svg PUBLIC "-//W3C//DTD SVG 20010904//EN"
 "http://www.w3.org/TR/2001/REC-SVG-20010904/DTD/svg10.dtd">
<svg version="1.0" xmlns="http://www.w3.org/2000/svg"
 width="1280.000000pt" height="1280.000000pt" viewBox="0 0 1280.000000 1280.000000"
 preserveAspectRatio="xMidYMid meet">
<metadata>
Created by potrace 1.11, written by Peter Selinger 2001-2013
</metadata>
<g transform="translate(0.000000,1280.000000) scale(0.100000,-0.100000)"
fill="#000000" stroke="none">
<path d="M1545 10604 c-181 -48 -282 -193 -290 -417 -8 -261 135 -445 359
-462 177 -13 319 63 386 208 39 82 48 131 48 241 0 174 -59 305 -173 383 -75
52 -230 74 -330 47z m205 -105 c62 -18 139 -97 165 -169 15 -42 20 -80 20
-160 0 -136 -20 -195 -91 -267 -56 -56 -100 -74 -191 -77 -176 -7 -300 156
-286 375 14 234 176 360 383 298z"/>
<path d="M458 10602 c-17 -3 -18 -32 -18 -433 0 -236 3 -429 8 -430 11 -1 75
-2 90 0 9 1 12 47 12 196 l0 195 237 -2 237 -3 2 -185 c0 -102 2 -189 2 -195
1 -5 24 -10 52 -10 l50 0 0 433 c0 425 0 432 -20 433 -11 1 -26 2 -32 3 -7 1
-22 -1 -33 -5 -19 -6 -20 -15 -20 -185 l-1 -179 -237 -3 -237 -2 0 185 c0 141
-3 185 -12 186 -7 0 -24 1 -38 2 -14 2 -33 1 -42 -1z"/>
<path d="M1839 9557 l-26 -12 97 -300 c195 -599 240 -738 240 -750 0 -6 -8
-21 -17 -32 -19 -21 -145 -160 -184 -204 -13 -14 -58 -63 -99 -109 -41 -46
-86 -95 -99 -109 -12 -14 -55 -62 -95 -105 -39 -44 -82 -91 -95 -105 -12 -14
-53 -59 -90 -100 -36 -41 -73 -82 -81 -91 -8 -9 -55 -61 -105 -116 -49 -54
-94 -104 -100 -110 -33 -35 -162 -179 -185 -206 l-27 -31 19 -61 c10 -34 20
-65 22 -71 2 -5 6 -17 9 -25 3 -8 39 -118 80 -245 273 -836 409 -1255 420
-1284 l12 -35 155 -33 c85 -18 166 -35 179 -37 14 -3 47 -10 75 -16 28 -6 60
-12 71 -14 11 -3 40 -9 65 -15 25 -5 57 -12 71 -15 15 -2 80 -16 145 -30 164
-35 605 -128 802 -170 90 -18 168 -38 172 -42 7 -7 360 -616 439 -757 12 -21
29 -50 38 -65 9 -15 22 -37 30 -49 13 -21 14 -22 43 -5 17 10 28 23 25 30 -3
7 -117 207 -255 444 -152 262 -247 435 -242 443 5 10 83 97 177 199 6 6 44 49
85 96 41 47 82 92 90 100 8 8 51 56 95 105 43 50 86 97 95 106 8 8 49 53 90
99 41 46 80 88 85 94 6 6 46 52 90 101 44 49 87 96 95 105 15 16 143 158 206
229 24 27 35 33 45 25 8 -6 30 -17 49 -24 19 -8 71 -30 115 -50 44 -20 373
-166 731 -325 l651 -289 -2 -30 c-5 -70 -17 -182 -20 -196 -2 -8 -7 -49 -10
-90 -4 -41 -9 -88 -10 -105 -2 -16 -7 -61 -10 -100 -3 -38 -8 -81 -10 -95 -2
-14 -7 -54 -10 -90 -3 -36 -8 -76 -10 -90 -2 -14 -6 -56 -10 -95 -3 -38 -7
-86 -10 -105 -2 -19 -9 -78 -14 -130 -10 -88 -14 -131 -26 -250 -12 -123 -17
-167 -30 -277 -7 -51 -8 -53 -43 -62 -61 -14 -185 -41 -217 -47 -16 -3 -72
-14 -124 -25 -51 -12 -101 -22 -110 -24 -9 -2 -56 -12 -106 -23 -49 -11 -103
-23 -120 -25 -16 -3 -124 -26 -240 -51 -115 -25 -211 -46 -212 -46 -1 0 2 -11
7 -25 5 -14 6 -25 3 -25 -4 0 -3 -4 3 -10 6 -6 51 -1 124 15 63 13 180 38 260
55 80 17 154 32 165 34 11 3 54 12 95 21 41 9 84 18 95 21 40 7 270 55 285 59
8 2 53 11 100 20 47 10 89 21 94 26 6 5 11 24 12 41 2 18 6 58 10 88 8 64 10
81 18 176 4 40 8 87 11 105 4 36 10 97 20 189 3 30 8 71 10 90 2 19 6 58 9 85
10 95 17 160 21 195 2 19 7 64 10 100 4 36 8 76 10 90 2 14 6 54 10 90 3 36 8
81 10 100 2 19 7 64 10 100 3 36 8 76 10 90 2 14 7 54 10 90 13 145 1 128 148
212 73 41 331 190 575 332 244 141 462 267 485 280 23 13 100 57 171 99 l129
75 81 -48 c84 -49 975 -563 1036 -597 19 -11 117 -68 217 -127 101 -58 187
-106 193 -106 5 0 128 68 272 151 144 84 276 159 292 169 17 9 118 67 225 129
106 62 204 118 217 123 29 13 30 25 5 57 l-18 23 -401 -231 c-221 -127 -416
-239 -434 -250 -18 -10 -62 -35 -97 -56 -48 -28 -68 -35 -80 -28 -20 12 -653
379 -701 406 -19 11 -163 94 -320 185 -157 91 -305 176 -330 190 -25 13 -71
40 -102 59 l-58 34 -332 -192 c-183 -106 -344 -199 -358 -206 -14 -8 -106 -61
-205 -119 -99 -57 -244 -142 -323 -187 -79 -45 -164 -95 -190 -110 -26 -15
-65 -37 -87 -48 l-40 -20 -285 126 c-157 70 -404 180 -550 245 -146 65 -294
131 -330 147 -36 17 -139 63 -230 103 -91 40 -170 77 -176 84 -7 6 -24 49 -39
96 -14 47 -30 94 -35 105 -5 11 -22 65 -40 120 -17 55 -57 181 -90 280 -32 99
-104 322 -160 495 -56 173 -122 377 -147 452 l-45 137 -36 7 c-21 3 -86 17
-147 30 -254 54 -456 97 -540 114 -49 11 -144 31 -210 45 -172 37 -635 135
-665 140 -14 3 -49 11 -79 18 l-55 12 -48 150 c-27 83 -98 301 -158 485 -60
184 -115 354 -122 378 -14 45 -19 48 -59 29z m666 -1177 c132 -29 247 -53 255
-55 8 -2 62 -13 120 -25 58 -12 112 -23 120 -25 13 -3 137 -29 445 -96 176
-38 330 -70 362 -75 84 -14 85 -14 115 -105 16 -46 31 -91 33 -99 2 -8 17 -55
33 -105 32 -95 369 -1129 420 -1290 22 -70 30 -55 -96 -192 -44 -49 -89 -98
-99 -110 -10 -12 -52 -58 -93 -103 -41 -45 -81 -90 -90 -100 -17 -20 -131
-147 -220 -245 -30 -33 -68 -76 -86 -95 -122 -137 -152 -171 -193 -216 -25
-27 -80 -88 -122 -135 -42 -46 -89 -98 -105 -116 l-29 -32 -140 30 c-77 16
-149 31 -160 33 -11 2 -40 9 -65 15 -25 6 -133 29 -240 52 -107 22 -203 43
-215 45 -11 3 -31 7 -45 10 -14 3 -99 21 -190 41 -91 19 -174 37 -185 39 -11
2 -31 6 -45 9 -14 3 -34 7 -45 9 -11 2 -85 18 -165 36 -80 17 -154 34 -164 36
-27 5 -29 8 -63 114 -34 106 -91 280 -278 855 -70 215 -147 451 -171 525 -24
75 -44 140 -44 145 0 7 91 119 110 135 4 3 73 79 155 170 81 91 180 201 220
245 40 44 92 102 116 129 24 27 53 60 65 73 12 12 52 57 90 100 38 42 80 88
93 102 13 14 53 59 90 100 36 41 90 101 120 133 30 32 61 68 69 79 17 25 7 26
317 -41z"/>
<path d="M2202 8066 c-41 -46 -86 -97 -101 -112 -15 -16 -67 -74 -116 -129
-50 -55 -106 -118 -125 -139 -19 -21 -39 -44 -45 -50 -8 -9 -165 -184 -200
-222 -5 -6 -41 -46 -80 -89 -38 -43 -79 -88 -90 -100 -11 -11 -37 -40 -59 -64
l-38 -43 27 -26 28 -25 44 49 c25 27 73 80 106 118 66 73 138 154 173 193 12
12 52 57 90 100 38 42 80 88 93 102 13 14 53 59 90 100 36 41 71 79 76 85 6 6
48 54 95 106 47 52 104 115 127 140 l42 45 -21 22 c-12 13 -26 23 -32 23 -6
-1 -44 -38 -84 -84z"/>
<path d="M3668 7839 c-23 -9 -26 -14 -18 -32 5 -12 61 -184 125 -382 65 -198
148 -454 186 -570 37 -115 78 -243 91 -282 12 -40 27 -73 32 -73 6 1 23 6 37
13 l26 12 -57 175 c-72 220 -252 773 -322 988 -28 89 -57 162 -63 161 -5 0
-22 -5 -37 -10z"/>
<path d="M1806 5766 c-9 -37 -3 -43 57 -56 72 -16 377 -80 405 -86 13 -3 76
-16 140 -30 64 -14 128 -28 142 -30 56 -11 359 -75 415 -89 33 -7 76 -17 95
-20 19 -3 50 -10 68 -15 27 -7 34 -5 42 10 23 43 13 57 -52 70 -35 7 -67 14
-73 15 -55 12 -126 27 -146 30 -13 3 -74 16 -134 29 -61 14 -123 27 -140 30
-16 3 -39 8 -50 10 -11 3 -105 23 -210 45 -104 22 -242 51 -305 65 -254 55
-246 54 -254 22z"/>
<path d="M10330 6613 l0 -433 55 0 55 0 2 337 3 337 145 -207 c80 -114 186
-266 235 -337 l90 -130 53 0 52 0 0 433 0 433 -52 -1 -53 -1 0 -336 c0 -185
-3 -334 -7 -332 -4 2 -91 125 -194 272 -103 147 -208 296 -234 332 l-46 64
-52 1 -52 1 0 -433z"/>
<path d="M11149 7046 c-1 -1 -3 -196 -4 -433 l-1 -433 53 0 53 0 0 195 c0 107
3 196 8 196 20 3 448 5 458 2 7 -3 10 -67 10 -198 l-1 -195 55 0 55 0 -1 423
c-1 232 -2 427 -3 432 0 6 -24 10 -51 10 -38 1 -50 -3 -51 -15 -1 -8 -1 -93
-2 -187 l0 -173 -238 0 -239 0 -2 187 -3 187 -47 1 c-27 1 -49 1 -49 1z"/>
<path d="M12063 6582 c-60 -31 -103 -90 -103 -142 0 -16 6 -20 33 -20 28 0 34
5 48 39 20 47 56 73 107 76 70 4 124 -40 125 -104 1 -58 -25 -94 -225 -299
-58 -59 -82 -91 -84 -112 l-4 -30 200 0 200 0 0 25 c0 14 1 28 3 33 1 4 -61 7
-138 8 -77 0 -140 5 -141 10 -1 5 48 60 108 123 129 136 164 197 155 269 -6
39 -14 54 -52 89 -48 44 -87 56 -162 52 -23 -2 -54 -9 -70 -17z"/>
<path d="M5716 5562 c-2 -4 -7 -38 -11 -77 -3 -38 -8 -83 -10 -100 -2 -16 -7
-57 -10 -90 -3 -33 -8 -76 -10 -95 -2 -19 -7 -64 -10 -100 -3 -36 -8 -76 -10
-90 -2 -14 -7 -54 -10 -90 -3 -36 -8 -81 -10 -100 -7 -55 -34 -318 -40 -390
-3 -36 -8 -74 -10 -85 -2 -11 -7 -54 -11 -96 l-6 -76 36 -1 c20 -1 36 2 37 6
0 4 2 16 3 27 2 11 6 54 10 95 4 41 9 86 11 100 2 14 7 59 10 100 4 41 9 83
11 93 1 10 6 50 9 90 3 39 8 83 10 97 5 35 14 114 20 180 9 98 16 164 20 190
2 14 7 54 10 90 4 36 8 79 10 95 3 25 13 140 19 212 1 11 -9 17 -31 19 -18 1
-35 -1 -37 -4z"/>
<path d="M3829 4003 c0 -57 0 -721 0 -779 l1 -51 53 1 52 1 0 333 c0 182 3
332 6 332 4 0 18 -17 32 -37 26 -38 40 -58 229 -328 58 -82 128 -184 157 -225
l51 -75 55 -2 54 -1 -2 431 -2 432 -52 3 -53 3 -2 -340 -3 -340 -200 287
c-299 431 -267 392 -325 392 l-50 0 -1 -37z"/>
<path d="M3829 3043 c0 -11 0 -711 0 -794 l1 -67 43 3 c23 2 47 4 52 4 7 1 11
67 10 194 l0 192 238 1 237 2 0 -193 c0 -145 3 -194 13 -197 10 -4 61 -3 90 1
4 1 7 195 7 431 l0 430 -55 0 -55 0 0 -185 c0 -185 0 -185 -22 -186 -85 -4
-428 -1 -440 3 -11 5 -13 41 -13 187 l1 181 -53 0 c-29 0 -53 -3 -54 -7z"/>
</g>
</svg>
